<?xml version="1.0" encoding="UTF-8" standalone="no"?>
<!-- Created with Inkscape (http://www.inkscape.org/) -->

<svg
   width="11.040833mm"
   height="10.615204mm"
   viewBox="0 0 11.040833 10.615204"
   version="1.1"
   id="svg5"
   xml:space="preserve"
   xmlns="http://www.w3.org/2000/svg"
   xmlns:svg="http://www.w3.org/2000/svg"><defs
     id="defs2" /><g
     id="layer1"
     transform="translate(-82.3939,-107.18926)"><g
       id="g138"
       transform="matrix(0.35277777,0,0,-0.35277777,-17.085777,260.99656)"><g
         id="g889"
         style="stroke-width:0.433701;stroke-dasharray:none"><polygon
           points="296.92022,422.37402 296.93793,434.95844 296.93031,435.77234 296.95222,435.77235 298.36954,435.77201 298.36785,432.25522 298.36703,430.53797 298.36174,419.51578 298.3557,406.93135 298.36408,406.11745 296.93847,406.11779 296.89735,406.11746 296.9023,409.63459 296.90471,411.35184 "
           stroke="#000000"
           stroke-width="1pt"
           fill="none"
           id="polygon132"
           style="fill:#000000;fill-opacity:1;stroke-width:0.433701;stroke-dasharray:none" /><path
           d="m 296.91763,420.53087 0.003,1.84315 c -0.89795,0.65413 -1.90948,1.15252 -2.98724,1.46034 -2.18223,0.62327 -4.54651,0.43978 -6.60645,-0.51275 -0.98424,-0.45512 -1.88468,-1.08354 -2.65098,-1.85258 -0.76629,-0.76903 -1.39918,-1.68039 -1.83206,-2.70231 -0.43541,-1.02792 -0.65017,-2.13748 -0.63683,-3.24846 0.0134,-1.11098 0.2559,-2.22673 0.75576,-3.25248 0.49256,-1.01075 1.20437,-1.87571 2.04281,-2.57007 0.83843,-0.69436 1.8048,-1.22113 2.83396,-1.55589 1.02084,-0.33205 2.07819,-0.47411 3.12321,-0.46063 1.04501,0.0135 2.07878,0.18186 3.06485,0.4777 1.01143,0.30346 1.97881,0.73939 2.87479,1.2917 l 0.002,1.71126 c -0.98994,-0.73096 -2.10574,-1.29176 -3.28449,-1.64542 -1.73212,-0.51968 -3.62264,-0.58616 -5.34236,-0.0268 -1.71971,0.55937 -3.24887,1.77339 -4.04108,3.39903 -0.80218,1.64611 -0.80217,3.64111 -0.088,5.32723 0.71422,1.68612 2.11077,3.05271 3.77283,3.82126 1.74269,0.80583 3.7762,0.96366 5.62235,0.43637 1.25807,-0.35932 2.42199,-1.03477 3.36946,-1.93644 z"
           stroke="#000000"
           stroke-width="1pt"
           fill="none"
           id="path134"
           style="fill:#000000;fill-opacity:1;stroke-width:0.433701;stroke-dasharray:none" /><path
           d="m 298.36263,421.35893 -8.9e-4,-1.84315 c 0.89856,-0.6533 1.91055,-1.15074 2.98859,-1.45757 2.18281,-0.62125 4.54693,-0.43556 6.60598,0.51888 0.98382,0.45603 1.88368,1.08529 2.64926,1.85503 0.76558,0.76975 1.39762,1.68169 1.82955,2.70402 0.43446,1.02832 0.64819,2.13807 0.63382,3.24904 -0.0144,1.11097 -0.25796,2.22649 -0.75878,3.25178 -0.49349,1.01029 -1.2061,1.87459 -2.04518,2.56817 -0.83908,0.69359 -1.80594,1.21946 -2.83541,1.55326 -1.02115,0.3311 -2.07863,0.47219 -3.12363,0.45774 -1.04501,-0.0144 -2.07861,-0.18378 -3.06441,-0.48054 -1.01115,-0.3044 -1.97813,-0.74122 -2.87359,-1.29437 l -8.2e-4,-1.71126 c 0.98926,0.73188 2.10454,1.29371 3.28297,1.64846 1.73163,0.52129 3.62209,0.58953 5.34233,0.0317 1.72023,-0.55777 3.25052,-1.77038 4.04423,-3.39528 0.80371,-1.64537 0.80555,-3.64036 0.0929,-5.32715 -0.71266,-1.68678 -2.10794,-3.05467 -3.76929,-3.82476 -1.74193,-0.80744 -3.7753,-0.96715 -5.62194,-0.44158 -1.2584,0.35815 -2.42295,1.03253 -3.37125,1.93332 z"
           stroke="#000000"
           stroke-width="1pt"
           fill="none"
           id="path136"
           style="fill:#000000;fill-opacity:1;stroke-width:0.433701;stroke-dasharray:none" /></g></g></g></svg>
